<?xml version="1.0" standalone="no"?>
<!DOCTYPE svg PUBLIC "-//W3C//DTD SVG 20010904//EN"
 "http://www.w3.org/TR/2001/REC-SVG-20010904/DTD/svg10.dtd">
<svg version="1.0" xmlns="http://www.w3.org/2000/svg"
 width="300.000000pt" height="300.000000pt" viewBox="0 0 300.000000 300.000000"
 preserveAspectRatio="xMidYMid meet">
<metadata>
Created by potrace 1.11, written by Peter Selinger 2001-2013
</metadata>
<g transform="translate(0.000000,300.000000) scale(0.100000,-0.100000)"
fill="#000000" stroke="none">
<path d="M250 2500 l0 -250 250 0 250 0 0 -250 0 -250 -250 0 -250 0 0 -750 0
-750 500 0 500 0 2 247 3 248 248 3 247 2 0 -250 0 -250 500 0 500 0 0 750 0
750 -250 0 -250 0 2 248 3 247 248 3 247 2 0 250 0 250 -250 0 -250 0 0 -250
0 -250 -750 0 -750 0 0 250 0 250 -250 0 -250 0 0 -250z m1000 -1250 l0 -500
-250 0 -250 0 0 493 c0 272 3 497 7 500 3 4 116 7 250 7 l243 0 0 -500z m1000
0 l0 -500 -250 0 -250 0 0 493 c0 272 3 497 7 500 3 4 116 7 250 7 l243 0 0
-500z"/>
</g>
</svg>
